<?xml version="1.0" encoding="UTF-8" standalone="no"?>
<!-- Created with Inkscape (http://www.inkscape.org/) -->

<svg
   xmlns:dc="http://purl.org/dc/elements/1.1/"
   xmlns:cc="http://creativecommons.org/ns#"
   xmlns:rdf="http://www.w3.org/1999/02/22-rdf-syntax-ns#"
   xmlns:svg="http://www.w3.org/2000/svg"
   xmlns="http://www.w3.org/2000/svg"
   xmlns:sodipodi="http://sodipodi.sourceforge.net/DTD/sodipodi-0.dtd"
   xmlns:inkscape="http://www.inkscape.org/namespaces/inkscape"
   version="1.1"
   width="243"
   height="75"
   viewBox="0 0 6858 2116.7515"
   id="svg2"
   xml:space="preserve"
   style="fill-rule:evenodd"
   inkscape:version="0.48.4 r9939"
   sodipodi:docname="logo-8anos.svg"
   inkscape:export-filename="/home/cleriston/Imagens/logo-8anos.png"
   inkscape:export-xdpi="90"
   inkscape:export-ydpi="90"><sodipodi:namedview
     pagecolor="#ffffff"
     bordercolor="#666666"
     borderopacity="1"
     objecttolerance="10"
     gridtolerance="10"
     guidetolerance="10"
     inkscape:pageopacity="0"
     inkscape:pageshadow="2"
     inkscape:window-width="1880"
     inkscape:window-height="1062"
     id="namedview35"
     showgrid="false"
     showguides="true"
     inkscape:guide-bbox="true"
     inkscape:zoom="2.1152263"
     inkscape:cx="277.83326"
     inkscape:cy="38.865916"
     inkscape:window-x="1640"
     inkscape:window-y="18"
     inkscape:window-maximized="1"
     inkscape:current-layer="text3012" /><metadata
     id="metadata55"><rdf:RDF><cc:Work
         rdf:about=""><dc:format>image/svg+xml</dc:format><dc:type
           rdf:resource="http://purl.org/dc/dcmitype/StillImage" /><dc:title></dc:title></cc:Work></rdf:RDF></metadata><defs
     id="defs4"><style
       type="text/css"
       id="style6" /><clipPath
       id="id0"><path
         d="m 3241,1275 c 1489,0 2696,1207 2696,2696 0,1488 -1207,2695 -2696,2695 C 1752,6666 545,5459 545,3971 545,2482 1752,1275 3241,1275 z m 3,1207 c 826,0 1495,669 1495,1495 0,826 -669,1495 -1495,1495 -825,0 -1495,-669 -1495,-1495 0,-826 670,-1495 1495,-1495 z"
         id="path9" /></clipPath></defs><g
     transform="matrix(0.30234104,0,0,0.33214365,-164.9133,-423.48319)"
     id="Camada_x0020_1"><metadata
       id="CorelCorpID_0Corel-Layer" /><g
       transform="scale(1.0481283,0.95408168)"
       style="font-size:1944.17224121px;font-style:normal;font-weight:normal;line-height:125%;letter-spacing:0px;word-spacing:0px;fill:#a82827;fill-opacity:1;stroke:none;font-family:Sans"
       id="text3012"><path
         d="m 17154.013,6438.0583 c -34.995,54.4368 -52.493,136.0922 -52.493,206.0823 0,138.0361 75.823,180.808 149.702,180.808 19.441,0 68.046,-3.8884 120.538,-56.381 42.772,-42.7717 87.488,-157.4781 87.488,-287.7375 0,-143.8686 -95.265,-151.6454 -126.371,-151.6454 -97.209,0 -147.757,64.1577 -178.864,108.8736 m -81.655,581.3075 c -89.432,68.046 -116.651,219.6916 -116.651,297.4584 0,126.3711 56.381,194.4172 165.255,194.4172 50.548,0 124.427,-13.6093 192.473,-104.9853 44.716,-60.2693 71.934,-167.1989 71.934,-258.5749 0,-116.6502 -56.381,-180.808 -157.478,-180.808 -40.827,0 -95.264,7.7767 -155.533,52.4926 m 596.861,-715.4553 c 52.492,58.3251 79.711,124.427 79.711,186.6405 0,69.9901 -38.884,178.8639 -87.488,254.6866 -66.102,83.5993 -165.255,118.5945 -227.468,138.0362 3.888,1.9442 5.832,1.9442 7.776,3.8883 l -7.776,-1.9441 c 81.655,23.33 246.91,71.9345 246.91,260.519 0,153.5895 -110.819,495.764 -573.531,495.764 -326.621,0 -445.216,-143.8689 -445.216,-307.1792 0,-64.1577 17.498,-211.9149 132.204,-328.5652 79.711,-79.7109 171.087,-104.9853 235.245,-118.5945 -73.879,-21.3858 -130.26,-48.6043 -165.255,-95.2644 -40.827,-58.3251 -48.604,-118.5945 -48.604,-155.5338 0,-68.0459 33.051,-217.7474 171.087,-328.5651 116.65,-91.376 287.738,-95.2644 363.56,-95.2644 64.158,0 227.469,3.8884 318.845,91.3761"
         style="fill:#a82827;font-family:Raspoutine DemiBold;-inkscape-font-specification:Raspoutine DemiBold"
         id="path3787" /></g><path
       d="m 7338.2598,4947.7907 c -25.5563,133.6787 -37.3514,230.006 -46.1978,301.7601 -12.7782,129.747 -150.3886,233.9378 -318.47,233.9378 l -75.6857,0 c -146.4569,0 -263.4258,-108.1225 -230.0061,-222.1427 37.3514,-104.1907 70.7711,-263.4257 100.259,-435.4388 l 276.2039,-1479.3126 c 55.0442,-276.2038 71.754,-448.2169 75.6858,-565.1858 0,-121.8836 109.1054,-238.8525 277.1868,-234.9207 l 192.6546,0 c 62.9077,0 263.4258,0 448.217,-3.9318 104.1908,0 205.4328,-4.9146 272.2721,-4.9146 l 70.7711,0 c 117.9519,-3.9318 188.723,-7.8635 251.6306,-11.7952 134.6617,3.9317 251.6306,120.9006 234.9207,222.1426 -25.5562,113.0372 -201.501,167.0984 -351.8896,142.5251 -96.3273,-21.6245 -214.2791,-29.4879 -335.1798,-29.4879 -92.3956,0 -113.0371,0 -453.1316,12.7781 -57.993,213.2962 -109.1054,485.5684 -154.3203,745.0624 -4.9147,29.488 -12.7781,58.9759 -16.7098,92.3956 -4.9147,33.4197 -12.7782,58.9759 -12.7782,92.3956 l 37.3515,0 c 88.4638,3.9317 155.3032,3.9317 218.2108,3.9317 125.8153,0 230.0061,-3.9317 335.1798,-16.7098 37.3514,-3.9317 70.7711,-7.8635 100.2591,-12.7781 8.8464,0 20.6416,-3.9318 25.5562,-3.9318 l 12.7781,0 c 133.6788,-16.7098 280.1356,71.7541 272.2722,172.0131 -33.4197,129.747 -180.8595,221.1597 -360.736,191.6718 -88.4639,-15.727 -184.7912,-19.6587 -351.8897,-19.6587 l -347.9579,0 -146.4568,829.5946 z"
       id="path13"
       style="fill:#a82827;fill-rule:nonzero" /><path
       d="m 8905.0533,3929.4732 c 42.266,-226.0744 55.0441,-364.6678 50.1295,-460.9951 -7.8635,-105.1737 62.9076,-209.3645 210.3474,-230.989 41.2832,-3.9317 79.6175,-7.8635 108.1225,-11.7952 l -3.9317,0 c 151.3715,-29.4879 293.8967,54.0613 285.0503,154.3203 -3.9318,12.7781 -3.9318,55.0442 -12.7781,84.5322 -3.9318,20.6416 -12.7782,33.4197 -16.7099,54.0612 66.8394,-88.4638 146.4569,-172.0131 242.7842,-238.8524 71.754,-46.1978 159.235,-83.5492 243.7675,-113.0372 154.32,-46.1978 280.135,70.7711 242.784,188.7229 -37.352,109.1055 -196.587,183.8083 -355.8216,222.1427 l 3.9318,0 c -159.235,41.2831 -373.5142,217.2279 -486.5513,632.0252 -62.9077,218.2109 -159.235,767.6698 -179.8766,1039.942 -12.7781,125.8153 -150.3886,226.0743 -314.5382,222.1426 l -20.6416,0 c -146.4568,0 -281.1185,-96.3273 -251.6305,-210.3475 21.6245,-70.7711 42.266,-146.4568 50.1295,-200.5181 l 205.4328,-1131.3546 z"
       id="1"
       style="fill:#a82827;fill-rule:nonzero" /><path
       d="m 10686.126,4461.2394 c 230.006,-33.4197 473.773,-183.8083 683.138,-381.3776 96.327,-96.3274 172.013,-242.7842 172.013,-414.7973 0,-179.8765 -88.464,-263.4258 -192.655,-263.4258 -62.908,0 -205.433,28.5051 -386.292,238.8525 -129.747,154.3203 -242.784,472.7903 -276.204,820.7482 z m 398.087,792.2431 c 150.389,0 276.204,-42.2661 377.446,-83.5492 104.191,-46.1978 230.006,16.7098 205.433,108.1225 -29.488,92.3956 -117.952,184.7912 -268.34,227.0573 -105.174,20.6415 -234.921,41.2831 -410.866,41.2831 -729.335,-20.6416 -909.212,-409.8826 -918.058,-933.7853 0,-448.217 227.057,-825.6628 368.599,-997.6759 289.965,-360.7361 699.848,-477.705 1001.608,-477.705 448.217,0 675.274,222.1427 675.274,511.1247 0,117.9518 -58.976,281.1185 -151.372,423.6436 -100.259,150.3886 -285.05,272.2722 -431.507,343.0433 -263.425,134.6616 -544.544,151.3715 -863.014,164.1496 -3.932,16.7098 -8.846,70.7711 -8.846,150.3886 0,201.501 58.976,527.8344 423.643,523.9027 z"
       id="2"
       style="fill:#a82827;fill-rule:nonzero" /><path
       d="m 13037.299,3150.0082 c 28.505,-179.8766 54.061,-281.1186 96.327,-418.729 28.505,-109.1055 -125.815,-188.723 -272.272,-159.235 -180.859,41.2831 -306.674,159.235 -318.47,292.9137 -8.846,83.5492 -17.692,172.0131 -38.334,276.2039 -109.105,0 -188.723,67.8223 -200.518,151.3715 -12.778,66.8394 54.061,125.8153 137.61,142.5251 l -263.425,1390.8487 c -21.625,116.9689 -38.335,209.3645 -38.335,288.982 0,83.5492 33.42,159.235 96.328,251.6306 62.907,88.4638 243.767,168.0813 523.902,168.0813 29.488,0 79.618,0 109.106,-4.9146 151.371,-20.6416 259.494,-113.0372 285.05,-217.228 12.778,-71.754 -96.327,-142.5251 -209.365,-125.8153 -33.419,7.8635 -62.907,11.7952 -88.463,11.7952 -92.396,0 -159.235,-61.9247 -159.235,-217.228 0,-121.8835 33.419,-310.6064 79.617,-527.8344 12.778,-62.9076 33.42,-151.3715 50.13,-247.6988 21.624,-113.0372 46.197,-238.8525 67.822,-351.8897 24.573,-125.8153 50.129,-251.6305 70.771,-351.8896 3.932,-25.5562 8.846,-37.3514 12.778,-58.9759 58.976,0 125.815,0 205.433,4.9146 137.61,0 259.494,-58.9759 285.05,-151.3715 16.71,-83.5492 -84.532,-167.0984 -210.347,-155.3032 -41.283,4.9146 -91.413,4.9146 -146.457,4.9146 -20.642,0 -41.283,3.9318 -62.908,3.9318 l -11.795,0 z"
       id="3"
       style="fill:#a82827;fill-rule:nonzero" /><path
       d="m 13937.665,4461.2394 c 230.989,-33.4197 473.773,-183.8083 683.137,-381.3776 96.328,-96.3274 172.014,-242.7842 172.014,-414.7973 0,-179.8765 -88.464,-263.4258 -192.655,-263.4258 -62.908,0 -205.433,28.5051 -386.292,238.8525 -129.747,154.3203 -242.785,472.7903 -276.204,820.7482 z m 398.087,792.2431 c 151.372,0 276.204,-42.2661 377.446,-83.5492 104.191,-46.1978 230.006,16.7098 205.433,108.1225 -29.488,92.3956 -117.952,184.7912 -268.341,227.0573 -105.173,20.6415 -234.92,41.2831 -410.865,41.2831 -729.336,-20.6416 -909.212,-409.8826 -918.059,-933.7853 0,-448.217 227.058,-825.6628 369.583,-997.6759 288.982,-360.7361 699.847,-477.705 1000.625,-477.705 449.199,0 675.274,222.1427 675.274,511.1247 0,117.9518 -58.976,281.1185 -151.372,423.6436 -100.259,150.3886 -285.05,272.2722 -431.507,343.0433 -263.426,134.6616 -544.544,151.3715 -863.014,164.1496 -3.932,16.7098 -7.864,70.7711 -7.864,150.3886 0,201.501 57.993,527.8344 422.661,523.9027 z"
       id="4"
       style="fill:#a82827;fill-rule:nonzero" /><path
       d="m 16422.517,2818.7601 c -7.864,0 -16.71,0 -25.557,3.9317 l -187.74,980.9661 11.796,0 c 21.624,0 51.112,3.9317 75.685,3.9317 50.13,0 151.372,-3.9317 238.853,-12.7781 71.754,-7.8634 163.167,-28.505 251.63,-66.8394 218.211,-100.259 318.47,-351.8896 318.47,-548.476 0,-347.9579 -242.784,-381.3776 -414.797,-381.3776 -92.396,0 -175.945,7.8635 -268.34,20.6416 z m 42.266,1324.0093 c -58.976,0 -125.816,0 -323.385,3.9317 l -142.525,708.694 c -20.642,104.1907 -28.505,163.1667 -28.505,205.4327 0,146.4569 96.327,159.235 242.784,159.235 577.964,0 687.07,-444.2852 687.07,-666.4278 0,-410.8656 -326.334,-410.8656 -435.439,-410.8656 z m -716.558,-913.1438 c 41.283,-209.3645 54.062,-355.8213 54.062,-460.995 -3.932,-116.9689 96.327,-234.9208 259.494,-230.989 l 58.976,0 c 79.617,0 188.722,-3.9318 301.76,-7.8635 42.266,0 88.464,-3.9317 129.747,-3.9317 83.549,-4.9147 188.723,-8.8464 268.34,-8.8464 281.119,0 594.674,12.7781 758.824,209.3645 83.549,113.0372 137.61,255.5623 137.61,386.2922 0,230.0061 -133.679,515.0564 -414.797,698.8647 -146.457,92.3956 -313.556,134.6616 -439.371,151.3715 263.426,46.1978 665.445,163.1667 665.445,616.2983 0,192.6546 -79.617,368.5995 -213.296,535.6979 -100.259,117.9518 -335.18,402.0191 -1085.157,402.0191 -138.593,0 -238.852,-3.9317 -331.248,-7.8634 l -24.573,0 c -75.686,-3.9317 -147.44,-8.8464 -234.921,-8.8464 l -55.044,0 c -154.321,0 -272.272,-120.9006 -250.648,-238.8525 20.642,-87.4809 50.13,-209.3645 87.481,-385.3093 0,-16.7098 3.932,-41.2831 8.846,-57.993 l 318.47,-1588.418 z"
       id="5"
       style="fill:#000000;fill-rule:nonzero" /><path
       d="m 17935.249,3929.4732 c 42.266,-226.0744 54.061,-364.6678 50.129,-460.9951 -7.863,-105.1737 62.908,-209.3645 209.365,-230.989 42.266,-3.9317 79.617,-7.8635 109.105,-11.7952 l -3.931,0 c 150.388,-29.4879 292.913,54.0613 285.05,154.3203 -3.932,12.7781 -3.932,55.0442 -12.778,84.5322 -3.932,20.6416 -12.778,33.4197 -16.71,54.0612 66.839,-88.4638 146.457,-172.0131 242.784,-238.8524 71.754,-46.1978 159.235,-83.5492 242.784,-113.0372 155.304,-46.1978 281.119,70.7711 243.767,188.7229 -38.334,109.1055 -197.569,183.8083 -356.804,222.1427 l 4.915,0 c -159.235,41.2831 -373.514,217.2279 -486.551,632.0252 -62.908,218.2109 -159.235,767.6698 -179.877,1039.942 -12.778,125.8153 -151.372,226.0743 -314.538,222.1426 l -20.642,0 c -146.457,0 -281.118,-96.3273 -251.63,-210.3475 20.641,-70.7711 42.266,-146.4568 50.129,-200.5181 l 205.433,-1131.3546 z"
       id="6"
       style="fill:#000000;fill-rule:nonzero" /><path
       d="m 20713.015,3485.188 c -74.703,-25.5563 -167.099,-55.0442 -267.358,-55.0442 -636.94,0 -805.021,897.4168 -805.021,1240.4601 0,285.0502 79.617,490.483 288.982,490.483 121.883,0 277.187,-66.8394 418.729,-276.2039 114.02,-155.3032 184.791,-398.0874 256.545,-817.7993 l 108.123,-581.8957 z m 318.469,-272.2722 c 151.372,-46.1978 285.051,70.7711 264.409,183.8083 -29.488,138.5934 -75.686,351.8896 -146.457,738.1819 l -75.685,409.8826 c -58.976,344.0261 -92.396,633.0081 -92.396,754.8917 0,104.1908 -137.611,179.8765 -280.136,183.8083 -147.439,4.9146 -273.255,-83.5493 -264.408,-187.74 3.931,-71.7541 16.71,-168.0814 33.419,-256.5453 -172.013,234.9208 -394.155,490.4831 -720.489,490.4831 -347.958,0 -691.984,-226.0744 -691.984,-703.7793 0,-192.6547 114.02,-955.4098 725.404,-1440.9782 100.259,-75.6858 344.026,-234.9207 733.267,-234.9207 196.587,0 327.316,41.2831 448.217,87.4809 l 66.839,-24.5733 z"
       id="7"
       style="fill:#000000;fill-rule:nonzero" /><path
       d="m 21786.376,4427.8197 c -129.747,-75.6858 -377.446,-226.0744 -377.446,-494.4148 0,-226.0743 155.304,-435.4388 360.736,-599.5885 213.297,-159.2349 540.613,-187.74 711.643,-187.74 125.815,0 214.279,7.8635 289.965,28.5051 l -4.915,0 c 138.594,29.4879 209.365,151.3715 168.082,247.6988 -29.488,66.8394 -113.037,100.2591 -205.433,100.2591 -55.044,0 -105.174,-7.8635 -142.525,-29.488 l 3.932,0 c -62.908,-28.505 -133.679,-50.1295 -205.433,-50.1295 -268.341,0 -409.883,201.501 -409.883,360.736 0,196.5864 133.679,272.2721 272.272,351.8896 l 209.365,129.747 c 133.679,79.6175 339.111,205.4328 339.111,453.1317 0,179.8765 -92.395,418.729 -355.821,611.3836 -247.699,179.8766 -557.322,192.6547 -749.977,192.6547 -113.037,0 -230.989,-12.7781 -310.607,-29.488 -146.456,-37.3514 -246.716,-146.4568 -222.142,-238.8524 55.044,-137.6105 222.142,-188.723 351.889,-125.8153 l -3.931,0 c 79.617,38.3343 175.944,67.8223 322.401,67.8223 277.187,0 423.644,-176.9278 423.644,-344.0262 0,-163.1667 -100.259,-230.989 -205.433,-292.9137 l -259.494,-151.3715 z"
       id="8"
       style="fill:#000000;fill-rule:nonzero" /><g
       id="g23" /><g
       transform="matrix(0.98038442,0,0,0.90237379,183.89871,415.95813)"
       clip-path="url(#id0)"
       id="g25"><g
         id="g27"><path
           d="M 1665,6166 C -943,4210 1335,164 4435,1553 c -415,59 -821,140 -1228,283 131,213 238,445 341,672 -145,-30 -298,-39 -454,-21 -803,89 -1387,827 -1303,1648 61,606 469,1087 1001,1262 85,227 185,453 308,653 -542,192 -965,275 -1574,330 l 139,-214 z"
           id="path29"
           style="fill:#625d5f" /><path
           d="m 4843,1802 c 1880,1414 1178,4124 -757,4739 -686,218 -1414,167 -2002,-135 413,-58 804,-165 1208,-306 -130,-211 -236,-439 -339,-663 144,30 296,38 451,21 799,-88 1379,-816 1296,-1626 -61,-597 -466,-1072 -995,-1244 -85,-224 -184,-447 -307,-644 539,-190 960,-272 1565,-326 l -120,184 z"
           id="path31"
           style="fill:#bdbfc1" /></g></g><path
       d="m 3241,1275 c 1489,0 2696,1207 2696,2696 0,1488 -1207,2695 -2696,2695 C 1752,6666 545,5459 545,3971 545,2482 1752,1275 3241,1275 z m 3,1207 c 826,0 1495,669 1495,1495 0,826 -669,1495 -1495,1495 -825,0 -1495,-669 -1495,-1495 0,-826 670,-1495 1495,-1495 z"
       id="path33"
       style="fill:none" /><path
       d="m 4516.2177,1810.1256 c 410.782,176.8653 703.917,628.0521 881.366,1075.6295 -226.469,11.731 -1380.381,-355.5352 -1522.538,-164.2319 l -272.547,358.2424 -2.941,-5.4143 c -125.489,-347.4139 -285.292,-794.9913 -511.76,-1128.8696 537.251,-172.3534 957.835,-246.3481 1562.733,-295.9786 l -134.313,160.6225 z"
       id="path35"
       style="fill:#bdbfc1;stroke:#bdbfc1;stroke-width:7.16714811" /><a
       transform="matrix(0.98038442,0,0,0.90237379,183.89871,415.95813)"
       id="a3168"><path
         d="M 2003,6361 C 1607,6088 1319,5664 1121,5195 l 1114,-92 c 74,86 299,456 445,245 l 278,-397 2,6 c 128,385 291,881 523,1250 -549,191 -978,274 -1594,328 l 114,-174 z"
         id="path37"
         style="fill:#625d5f;stroke:#625d5f;stroke-width:7.61999989" /></a><circle
       cx="3241"
       cy="3971"
       r="216"
       id="circle39"
       style="fill:none"
       d="m 3457,3971 c 0,119.2935 -96.7065,216 -216,216 -119.2935,0 -216,-96.7065 -216,-216 0,-119.2935 96.7065,-216 216,-216 119.2935,0 216,96.7065 216,216 z" /><path
       d="m 19714.416,6366.0473 c -34.126,-11.6748 -76.334,-25.1456 -123.033,-25.1456 -291.868,0 -368.203,410.411 -368.203,568.4686 0,130.218 35.922,224.5137 132.014,224.5137 55.68,0 126.626,-30.5339 192.184,-126.6257 52.087,-70.9463 84.417,-182.3051 117.645,-374.4888 l 49.393,-266.7222 z m 146.383,-124.8296 c 69.15,-21.5534 130.218,32.3299 120.339,84.4171 -13.47,62.8638 -34.126,160.7518 -67.354,337.6686 l -34.126,188.5914 c -26.941,157.1596 -42.208,289.1736 -42.208,344.853 0,48.495 -63.762,82.6211 -128.422,84.4172 -67.354,2.6941 -124.83,-37.7183 -121.238,-86.2133 1.797,-32.33 8.083,-76.3346 15.267,-116.7471 -79.028,107.7666 -180.509,224.5137 -330.484,224.5137 -158.955,0 -316.115,-104.1744 -316.115,-322.4017 0,-88.9074 51.189,-438.2506 332.28,-660.9682 45.801,-34.1261 157.16,-106.8685 335.873,-106.8685 89.805,0 149.077,18.8592 204.756,40.4125 l 31.432,-11.6747 z"
       id="path43"
       style="fill:#a82827;fill-rule:nonzero" /><path
       d="m 20114.05,6599.5415 c 13.471,-79.0288 28.738,-174.2226 28.738,-246.9651 l 0,-11.6747 c -1.796,-44.0047 25.146,-94.2957 91.602,-101.4802 19.757,-2.6941 35.024,-4.4902 53.883,-8.0824 1.796,0 8.083,-1.7962 9.879,-1.7962 61.067,-8.0824 126.625,32.33 121.237,79.0289 -4.49,22.4513 5.388,-17.9611 -4.49,30.5338 9.878,-11.6747 23.349,-25.1455 36.82,-36.8202 77.233,-59.2716 178.713,-96.0919 290.072,-96.0919 121.237,0 283.785,42.2086 283.785,202.9604 0,35.0241 -5.388,77.2327 -20.655,165.242 -8.083,40.4125 -15.267,89.8055 -23.35,133.8102 -7.184,46.6988 -17.063,88.9074 -25.145,132.9121 -15.267,81.7229 -42.209,237.0864 -47.597,333.1783 -3.592,57.4755 -70.946,99.684 -146.383,99.684 l -17.063,0 c -62.864,1.7961 -121.237,-42.2085 -107.767,-90.7035 19.758,-61.0677 40.413,-152.6693 69.151,-336.7705 l 23.349,-126.6257 c 17.063,-93.3977 28.738,-168.8343 28.738,-223.6156 0,-92.4996 -28.738,-130.2179 -113.155,-130.2179 -72.743,0 -161.65,59.2716 -217.329,128.4218 -59.272,76.3346 -82.621,218.2273 -99.684,321.5035 l -34.127,223.6157 c -9.878,60.1696 -13.47,102.3782 -15.266,138.3004 -4.491,55.6794 -73.641,94.2957 -146.383,94.2957 l -15.267,0 c -65.558,1.7961 -121.238,-44.0047 -111.359,-88.9074 18.859,-68.2522 32.33,-139.1985 45.801,-225.4117 l 61.965,-358.3238 z"
       id="path45"
       style="fill:#a82827;fill-rule:nonzero" /><path
       d="m 21811.374,6390.2947 c -23.35,-20.6552 -61.966,-49.393 -117.645,-49.393 -273.907,0 -341.261,443.639 -341.261,592.7161 0,180.509 76.335,244.2709 165.242,244.2709 302.644,0 344.853,-518.1776 344.853,-610.6772 0,-47.5969 -1.796,-130.2179 -51.189,-176.9168 z m 218.227,-79.9268 c 100.582,99.684 104.174,211.0428 104.174,264.9261 0,299.0522 -193.979,731.0165 -634.026,731.0165 -111.359,0 -220.922,-30.5339 -295.46,-97.888 -45.801,-44.0046 -118.543,-128.4218 -118.543,-297.2561 0,-308.9308 204.756,-701.3807 636.72,-701.3807 136.505,0 244.271,33.2281 307.135,100.5822 z"
       id="path47"
       style="fill:#a82827;fill-rule:nonzero" /><path
       d="m 22363.677,6798.0115 c -59.271,-35.0241 -172.426,-104.1743 -172.426,-227.2078 0,-103.2763 70.946,-199.3681 165.242,-273.9067 97.888,-73.6404 247.863,-87.1113 325.994,-87.1113 57.475,0 97.888,4.4903 132.912,13.4709 l -1.796,0 c 62.864,13.4708 96.092,69.1502 76.334,114.0529 -13.47,30.5339 -52.087,45.8008 -94.295,45.8008 -24.248,0 -47.597,-3.5922 -64.66,-13.4708 l 1.796,0 c -28.738,-13.4708 -61.966,-23.3494 -94.296,-23.3494 -123.033,0 -187.693,92.4996 -187.693,165.242 0,90.7035 61.067,124.8296 124.829,161.6499 l 95.194,59.2716 c 61.966,36.8202 156.262,94.2957 156.262,207.4506 0,82.621 -42.209,192.1837 -163.446,280.193 -113.155,82.6211 -255.048,88.0094 -343.955,88.0094 -52.087,0 -105.073,-5.3883 -141.893,-13.4708 -67.354,-17.0631 -113.155,-66.4561 -101.48,-108.6646 24.247,-63.7619 101.48,-87.1113 160.752,-58.3736 l -1.796,0 c 36.82,17.9611 80.825,31.4319 148.179,31.4319 126.625,0 193.979,-80.8249 193.979,-158.0576 0,-74.5385 -46.698,-105.0724 -94.295,-133.8101 l -119.442,-69.1503 z"
       id="path49"
       style="fill:#a82827;fill-rule:nonzero" /><rect
       width="2819"
       height="984"
       x="10617"
       y="4345"
       id="rect51"
       style="fill:none" /></g></svg>